<?xml version="1.0" encoding="UTF-8" standalone="no"?>
<svg
   viewBox="0 0 22.261449 22.368594"
   data-name="Layer 1"
   id="Layer_1"
   version="1.1"
   sodipodi:docname="capture.svg"
   inkscape:version="1.3 (0e150ed6c4, 2023-07-21)"
   width="22.261448"
   height="22.368593"
   xmlns:inkscape="http://www.inkscape.org/namespaces/inkscape"
   xmlns:sodipodi="http://sodipodi.sourceforge.net/DTD/sodipodi-0.dtd"
   xmlns="http://www.w3.org/2000/svg"
   xmlns:svg="http://www.w3.org/2000/svg">
  <sodipodi:namedview
     id="namedview4"
     pagecolor="#ffffff"
     bordercolor="#000000"
     borderopacity="0.25"
     inkscape:showpageshadow="2"
     inkscape:pageopacity="0.0"
     inkscape:pagecheckerboard="0"
     inkscape:deskcolor="#d1d1d1"
     inkscape:zoom="29.6"
     inkscape:cx="13.766892"
     inkscape:cy="6.2162162"
     inkscape:window-width="1440"
     inkscape:window-height="830"
     inkscape:window-x="-6"
     inkscape:window-y="-6"
     inkscape:window-maximized="1"
     inkscape:current-layer="Layer_1" />
  <defs
     id="defs1">
    <style
       id="style1">.cls-1{fill:#55aae1}</style>
  </defs>
  <path
     class="cls-1"
     d="M 11.326389,18.974288 H 8.9556499 a 0.59268464,0.5907015 0 0 1 0,-1.181402 h 2.3707391 a 0.59268464,0.5907015 0 0 1 0,1.181402 z m 0,-16.5396283 H 8.9556499 a 0.59268464,0.5907015 0 0 1 0,-1.181403 h 2.3707391 a 0.59268464,0.5907015 0 0 1 0,1.181403 z m 7.112209,9.4512163 A 0.59268421,0.59070107 0 0 1 17.845914,11.295175 V 8.9323711 a 0.59268452,0.59070129 0 0 1 1.185368,0 v 2.3628039 a 0.59268421,0.59070107 0 0 1 -0.592684,0.590701 z m -16.5951576,0 A 0.59268421,0.59070107 0 0 1 1.2507569,11.295175 V 8.9323711 a 0.59268471,0.59070152 0 0 1 1.1853692,0 v 2.3628039 a 0.59268421,0.59070107 0 0 1 -0.5926857,0.590701 z m 16.5951576,7.088412 h -4.741473 a 0.59268464,0.5907015 0 1 1 0,-1.181402 h 4.148789 v -4.134907 a 0.59268452,0.59070129 0 0 1 1.185368,0 v 4.725607 a 0.59268421,0.59070107 0 0 1 -0.592684,0.590702 z m 0,-11.8140204 A 0.59268421,0.59070107 0 0 1 17.845914,6.5695671 V 2.4346597 h -4.148789 a 0.59268464,0.5907015 0 0 1 0,-1.181403 h 4.741473 a 0.59268421,0.59070107 0 0 1 0.592684,0.5907005 v 4.7256099 a 0.59268421,0.59070107 0 0 1 -0.592684,0.5907005 z m -16.5951576,0 A 0.59268421,0.59070107 0 0 1 1.2507569,6.5695671 V 1.8439572 A 0.59268421,0.59070107 0 0 1 1.8434404,1.2532567 h 4.7414751 a 0.59268464,0.5907015 0 0 1 0,1.181403 H 2.4361261 V 6.5695671 A 0.59268421,0.59070107 0 0 1 1.8434404,7.1602676 Z M 6.5849155,18.974288 H 1.8434404 A 0.59268421,0.59070107 0 0 1 1.2507569,18.383586 v -4.725607 a 0.59268471,0.59070152 0 1 1 1.1853692,0 v 4.134907 h 4.1487894 a 0.59268464,0.5907015 0 0 1 0,1.181402 z"
     id="path1"
     style="stroke-width:0.591691" />
  <path
     class="cls-1"
     d="m 18.438598,21.962716 a 0.59268421,0.59070107 0 0 1 -0.592684,-0.5907 v -2.953507 a 0.59268452,0.59070129 0 0 1 1.185368,0 v 2.953507 a 0.59268421,0.59070107 0 0 1 -0.592684,0.5907 z"
     id="path2"
     style="stroke-width:0.591691" />
  <path
     class="cls-1"
     d="m 21.40202,19.009212 h -2.963422 a 0.59268464,0.5907015 0 0 1 0,-1.181402 h 2.963422 a 0.59268464,0.5907015 0 0 1 0,1.181402 z"
     id="path3"
     style="stroke-width:0.591691" />
</svg>
