<?xml version="1.0" encoding="UTF-8" standalone="no"?>
<svg
   viewBox="0 0 50 50"
   width="25px"
   height="25px"
   version="1.1"
   id="svg1"
   sodipodi:docname="macro.svg"
   inkscape:version="1.3 (0e150ed6c4, 2023-07-21)"
   xmlns:inkscape="http://www.inkscape.org/namespaces/inkscape"
   xmlns:sodipodi="http://sodipodi.sourceforge.net/DTD/sodipodi-0.dtd"
   xmlns="http://www.w3.org/2000/svg"
   xmlns:svg="http://www.w3.org/2000/svg">
  <defs
     id="defs1" />
  <sodipodi:namedview
     id="namedview1"
     pagecolor="#ffffff"
     bordercolor="#000000"
     borderopacity="0.25"
     inkscape:showpageshadow="2"
     inkscape:pageopacity="0.0"
     inkscape:pagecheckerboard="0"
     inkscape:deskcolor="#d1d1d1"
     inkscape:zoom="23.68"
     inkscape:cx="12.478885"
     inkscape:cy="19.256757"
     inkscape:window-width="1440"
     inkscape:window-height="830"
     inkscape:window-x="-6"
     inkscape:window-y="-6"
     inkscape:window-maximized="1"
     inkscape:current-layer="svg1" />
  <path
     d="M 25,48 C 20.793,48 16.851455,46.869404 13.458984,44.896484 12.974346,44.614639 12.500438,44.315375 12.039062,44 H 6 V 37.960938 C 3.477,34.269937 2,29.808 2,25 2,20.192 3.477,15.730063 6,12.039062 V 6 h 6.039062 C 15.730063,3.477 20.192,2 25,2 29.808,2 34.269937,3.477 37.960938,6 H 44 v 6.039062 c 0.315375,0.461376 0.614639,0.935284 0.896484,1.419922 C 46.869404,16.851455 48,20.793 48,25 c 0,0.601 -0.02305,1.195799 -0.06836,1.785156 C 47.614439,30.910658 46.207625,34.731312 44,37.960938 V 44 H 37.960938 C 34.269938,46.523 29.808,48 25,48 Z M 10.998047,35.041016 h 7.701172 c -0.35,-0.883 -0.233,-2.650203 0,-3.533204 L 21.265625,23.675781 25,33.273438 l 3.732422,-9.597657 2.568359,7.832031 c 0.233,0.883 0.35,2.650204 0,3.533204 H 39 c -0.824,-1.007 -1.416047,-2.145469 -1.748047,-3.355469 L 34.099609,17.492188 c -0.233,-0.883001 -0.117578,-2.64825 0.232422,-3.53125 h -7.466797 c 0,0 0.141,0.573624 0,1.765624 -0.14,1.202 -1.865234,6.181641 -1.865234,6.181641 0,0 -1.726187,-4.98064 -1.867188,-6.181641 -0.140999,-1.192 0,-1.765625 0,-1.765624 h -7.466796 c 0.35,0.883 0.466422,2.650203 0.232422,3.533203 l -3.150391,14.191406 c -0.332,1.21 -0.926,2.348469 -1.75,3.355469 z"
     id="path1" />
</svg>
