<?xml version="1.0" encoding="UTF-8" standalone="no"?>
<svg
   viewBox="0 0 32 32"
   version="1.1"
   id="svg2"
   sodipodi:docname="trim_icon.svg"
   inkscape:version="1.3 (0e150ed6c4, 2023-07-21)"
   xmlns:inkscape="http://www.inkscape.org/namespaces/inkscape"
   xmlns:sodipodi="http://sodipodi.sourceforge.net/DTD/sodipodi-0.dtd"
   xmlns="http://www.w3.org/2000/svg"
   xmlns:svg="http://www.w3.org/2000/svg">
  <defs
     id="defs2" />
  <sodipodi:namedview
     id="namedview2"
     pagecolor="#ffffff"
     bordercolor="#000000"
     borderopacity="0.25"
     inkscape:showpageshadow="2"
     inkscape:pageopacity="0.0"
     inkscape:pagecheckerboard="0"
     inkscape:deskcolor="#d1d1d1"
     inkscape:zoom="18.5"
     inkscape:cx="16.027027"
     inkscape:cy="16"
     inkscape:window-width="1440"
     inkscape:window-height="830"
     inkscape:window-x="-6"
     inkscape:window-y="-6"
     inkscape:window-maximized="1"
     inkscape:current-layer="svg2" />
  <title
     id="title1" />
  <g
     data-name="cut, sccisors, interface, crop, trim, resize, film, split"
     id="cut_sccisors_interface_crop_trim_resize_film_split"
     style="fill:#00b569;fill-opacity:1">
    <path
       d="M12,22a3.93,3.93,0,0,0-.6.06l2.51-5.65a1,1,0,1,0-1.82-.82L9,22.54,5.91,15.59a1,1,0,0,0-1.82.82L6.6,22.06A3.93,3.93,0,0,0,6,22a4,4,0,1,0,3,6.62A4,4,0,1,0,12,22ZM6,28a2,2,0,1,1,2-2A2,2,0,0,1,6,28Zm6,0a2,2,0,1,1,2-2A2,2,0,0,1,12,28Z"
       id="path1"
       style="fill:#00b569;fill-opacity:1" />
    <path
       d="M29,2H9A1,1,0,0,0,8,3V16a1,1,0,0,0,2,0V4H28V22H17.92a1,1,0,0,0,0,2H29a1,1,0,0,0,1-1V3A1,1,0,0,0,29,2Z"
       id="path2"
       style="fill:#00b569;fill-opacity:1" />
  </g>
</svg>
