<svg xmlns="http://www.w3.org/2000/svg"  viewBox="0 0 50 50" width="25px" height="25px"><path d="M 25 2 C 20.793 2 16.851455 3.1305957 13.458984 5.1035156 C 12.974346 5.3853613 12.500438 5.684625 12.039062 6 L 6 6 L 6 12.039062 C 3.477 15.730063 2 20.192 2 25 C 2 29.808 3.477 34.269937 6 37.960938 L 6 44 L 12.039062 44 C 15.730063 46.523 20.192 48 25 48 C 29.808 48 34.269937 46.523 37.960938 44 L 44 44 L 44 37.960938 C 44.315375 37.499562 44.614639 37.025654 44.896484 36.541016 C 46.869404 33.148545 48 29.207 48 25 C 48 24.399 47.976955 23.804201 47.931641 23.214844 C 47.614439 19.089342 46.207625 15.268688 44 12.039062 L 44 6 L 37.960938 6 C 34.269938 3.477 29.808 2 25 2 z M 10.998047 14.958984 L 18.699219 14.958984 C 18.349219 15.841984 18.466219 17.609187 18.699219 18.492188 L 21.265625 26.324219 L 25 16.726562 L 28.732422 26.324219 L 31.300781 18.492188 C 31.533781 17.609188 31.650781 15.841984 31.300781 14.958984 L 39 14.958984 C 38.176 15.965984 37.583953 17.104453 37.251953 18.314453 L 34.099609 32.507812 C 33.866609 33.390813 33.982031 35.156062 34.332031 36.039062 L 26.865234 36.039062 C 26.865234 36.039062 27.006234 35.465438 26.865234 34.273438 C 26.725234 33.071438 25 28.091797 25 28.091797 C 25 28.091797 23.273813 33.072437 23.132812 34.273438 C 22.991813 35.465438 23.132812 36.039063 23.132812 36.039062 L 15.666016 36.039062 C 16.016016 35.156062 16.132438 33.388859 15.898438 32.505859 L 12.748047 18.314453 C 12.416047 17.104453 11.822047 15.965984 10.998047 14.958984 z"/></svg>